<svg height='100px' width='100px'  fill="#1A1A1A" xmlns="http://www.w3.org/2000/svg" xmlns:xlink="http://www.w3.org/1999/xlink" version="1.1" x="0px" y="0px" viewBox="0 0 175.835 147.225" style="enable-background:new 0 0 175.835 147.225;" xml:space="preserve"><g><path d="M2.952,142.792c2.473,2.926,6.002,4.432,9.554,4.433c2.851,0,5.715-0.969,8.063-2.953l10.541-8.909l-1.275-10.972l6.667,1   l4.333-4.667l7.104,0.418l8.131-6.872c1.997-1.687,3.391-3.91,4.04-6.443l4.634-18.07l16.028,9.675l-9.255,31.239   c-1.961,6.62,1.815,13.576,8.434,15.538c1.186,0.351,2.381,0.518,3.557,0.518c5.394,0,10.371-3.517,11.979-8.952l11.999-40.501   c1.62-5.464-0.643-11.307-5.523-14.252l-28.459-17.18c3.967-5.982,8.852-11.631,13.846-16.821l4.238,8.364   c1.084,2.142,3.055,3.672,5.398,4.194l15.771,3.507l2.745-6.861l5.244,8.637l6.019,1.338c0.584,0.13,1.168,0.192,1.744,0.192   c3.666,0.001,6.973-2.537,7.801-6.264c0.959-4.314-1.758-8.586-6.072-9.545l-26.088-5.802l-4.816-9.502   c1.431-1.354,2.804-2.652,4.097-3.893l-11.635-4.688c-2.476-0.997-4.416-2.903-5.463-5.361c-1.046-2.458-1.072-5.177-0.072-7.653   c1.533-3.805,5.174-6.264,9.276-6.264c1.281,0,2.539,0.244,3.736,0.727l13.079,5.271c-0.145-2.672-1.001-5.161-2.74-7.168   c-5.761-6.648-18.553-9.971-31.09-0.885C68.494,14.72,61.343,21.161,55.004,29.162l3.497,4.897l-1.333,3.333l4,4l-10.334,5.333   l-5.351-3.462c-1.163,1.979-2.334,4.057-3.53,6.265c-4.408,9.856-2.412,16.559,1.625,21.466c0.014,0.156,0.027,0.312,0.047,0.467   l-6.742,26.292L4.432,125.178C-0.84,129.633-1.504,137.52,2.952,142.792z"></path><path d="M155.523,7.411c-2.107-2.357-4.601-4.159-7.298-5.409l-7.724,7.724L137.01,0c-4.75,0.366-9.424,2.212-13.249,5.631   c-3.571,3.194-5.87,7.274-6.889,11.609l41.24,16.619C162.975,25.645,162.223,14.904,155.523,7.411z"></path><path d="M98.524,12.002c-4.097-1.651-8.759,0.332-10.409,4.43c-1.652,4.098,0.33,8.76,4.429,10.411l14.335,5.776l2.944-2.56   l1.068,4.178l44.609,17.976l3.988-4.487l2.261,7.005l3.094,1.247c0.979,0.396,1.991,0.582,2.987,0.582   c3.167,0.001,6.166-1.895,7.422-5.013c1.652-4.098-0.332-8.758-4.428-10.41L98.524,12.002z"></path></g></svg>